# xmcd CD database file
#
# Track frame offsets:
#	150
#	18606
#	40179
#	60657
#	76682
#	97536
#	113835
#	133528
#	152330
#	169530
#	186338
#	204524
#	220534
#	240578
#	255868
#	273287
#	289821
#	313524
#	327599
#
# Disc length: 4583 seconds
#
# Revision: 1
# Processed by: cddbd v1.5.2PL0 Copyright (c) Steve Scherf et al.
# Submitted via: CDex 1.51
#
DISCID=f111e513
DTITLE=Various Artist - ZMPCP-15
DYEAR=1900
DGENRE=Blues
TTITLE0=Taylor Swift - 22
TTITLE1=Robbie Williams - Be A Boy
TTITLE2=Robin Thicke Ft T.I and Pharrell - Blurred Lines
TTITLE3=Nicole Scherzinger - Boomerang
TTITLE4=Macklemore and Ryan Lewis - Can't Hold Us
TTITLE5=Olly Murs - Dear Darlin'
TTITLE6=Daft Punk Ft Pharrell Williams - Get luck
TTITLE7=Stereophonics The - Graffiti On The Train
TTITLE8=Demi Lovato - Heart Attack
TTITLE9=Nelly - Hey Porsche
TTITLE10=Calvin Harris Ft Ellie Goulding - I Need Your Love
TTITLE11=Naughty Boy Ft Sam Smith - La La La
TTITLE12=Passenger - Let Her Go
TTITLE13=Fall Out Boy - My Songs Know What You Did In The Dark
TTITLE14=Amelia Lily - Party Over
TTITLE15=Bridgit Mender - Ready Or Not
TTITLE16=Rudimental Ft Ella Eyre - Waiting All Night
TTITLE17=Loveable Rogues - What A Night
TTITLE18=Saturdays The Ft Sean Paul - What About Us
EXTD=
EXTT0=
EXTT1=
EXTT2=
EXTT3=
EXTT4=
EXTT5=
EXTT6=
EXTT7=
EXTT8=
EXTT9=
EXTT10=
EXTT11=
EXTT12=
EXTT13=
EXTT14=
EXTT15=
EXTT16=
EXTT17=
EXTT18=
PLAYORDER=
